<svg xmlns="http://www.w3.org/2000/svg" viewBox="0 0 160 160" role="img" aria-labelledby="title desc">
  <title id="title">Alex Johnson avatar</title>
  <desc id="desc">Professional profile avatar illustration.</desc>
  <rect width="160" height="160" rx="80" fill="#d7dde7"/>
  <path d="M25 140c8-30 28-45 55-45s47 15 55 45H25Z" fill="#17202b"/>
  <path d="M55 105c6 9 15 14 25 14s19-5 25-14v35H55v-35Z" fill="#d7a17d"/>
  <path d="M43 67c0-27 15-45 37-45s37 18 37 45c0 31-16 51-37 51S43 98 43 67Z" fill="#e3ad86"/>
  <path d="M42 61c2-26 18-43 39-43 25 0 38 18 38 44-12-4-20-12-24-24-9 13-25 22-53 23Z" fill="#2d2926"/>
  <path d="M41 69c-8 1-10 9-6 17 3 6 8 8 12 6l-6-23ZM119 69c8 1 10 9 6 17-3 6-8 8-12 6l6-23Z" fill="#d99b76"/>
  <ellipse cx="66" cy="73" rx="5" ry="6" fill="#1c1a18"/>
  <ellipse cx="94" cy="73" rx="5" ry="6" fill="#1c1a18"/>
  <path d="M72 93c5 4 12 4 17 0" fill="none" stroke="#9e5b4f" stroke-width="4" stroke-linecap="round"/>
  <path d="M80 78c-2 6-4 11-7 16h10" fill="none" stroke="#c78368" stroke-width="3" stroke-linecap="round" stroke-linejoin="round"/>
  <path d="M57 63c6-5 13-5 19-1M86 62c6-4 13-4 18 1" fill="none" stroke="#2d2926" stroke-width="4" stroke-linecap="round"/>
  <path d="M40 145h80c-5-18-18-29-40-29s-35 11-40 29Z" fill="#223040"/>
  <path d="M63 112l17 22 17-22 10 33H53l10-33Z" fill="#f8fafc"/>
  <path d="M25 140c6-22 19-36 38-42l17 36 17-36c19 6 32 20 38 42v20H25v-20Z" fill="#101720"/>
</svg>
