<svg xmlns="http://www.w3.org/2000/svg" viewBox="0 0 96 96" role="img" aria-labelledby="title desc">
  <title id="title">Pug avatar</title>
  <desc id="desc">A polished illustrated pug avatar.</desc>
  <defs>
    <linearGradient id="bg" x1="12" x2="84" y1="10" y2="88" gradientUnits="userSpaceOnUse">
      <stop stop-color="#fff7e8"/>
      <stop offset="1" stop-color="#f1d2a8"/>
    </linearGradient>
    <linearGradient id="fur" x1="30" x2="66" y1="18" y2="82" gradientUnits="userSpaceOnUse">
      <stop stop-color="#f2c98f"/>
      <stop offset=".58" stop-color="#d99b5f"/>
      <stop offset="1" stop-color="#b97744"/>
    </linearGradient>
    <linearGradient id="muzzle" x1="34" x2="62" y1="48" y2="76" gradientUnits="userSpaceOnUse">
      <stop stop-color="#3a2b29"/>
      <stop offset="1" stop-color="#171414"/>
    </linearGradient>
  </defs>
  <rect width="96" height="96" rx="48" fill="url(#bg)"/>
  <circle cx="48" cy="50" r="37" fill="#f8dfb9" opacity=".42"/>
  <path d="M18 37c-6-10-3-23 7-27 10-3 20 7 21 22L34 49 18 37Z" fill="#2b2222"/>
  <path d="M78 37c6-10 3-23-7-27-10-3-20 7-21 22l12 17 16-12Z" fill="#2b2222"/>
  <path d="M24 42c0-20 10-35 24-35s24 15 24 35c0 25-10 43-24 43S24 67 24 42Z" fill="url(#fur)"/>
  <path d="M28 40c4-16 12-25 20-25s16 9 20 25c-5-5-12-8-20-8s-15 3-20 8Z" fill="#8c5b3c" opacity=".32"/>
  <path d="M30 50c0-13 8-22 18-22s18 9 18 22c0 18-8 30-18 30S30 68 30 50Z" fill="#e7b578"/>
  <path d="M27 45c5-5 10-7 15-6 3 1 4 4 2 8-2 5-6 8-11 7-5-1-8-5-6-9Z" fill="#3a2b29" opacity=".94"/>
  <path d="M69 45c-5-5-10-7-15-6-3 1-4 4-2 8 2 5 6 8 11 7 5-1 8-5 6-9Z" fill="#3a2b29" opacity=".94"/>
  <ellipse cx="38" cy="47" rx="4.8" ry="5.8" fill="#141111"/>
  <ellipse cx="58" cy="47" rx="4.8" ry="5.8" fill="#141111"/>
  <circle cx="39.7" cy="44.6" r="1.5" fill="#fff" opacity=".92"/>
  <circle cx="59.7" cy="44.6" r="1.5" fill="#fff" opacity=".92"/>
  <path d="M33 61c1-10 7-16 15-16s14 6 15 16c1 11-5 19-15 19S32 72 33 61Z" fill="url(#muzzle)"/>
  <path d="M39 58c2-5 6-8 9-8s7 3 9 8c-1 5-4 8-9 8s-8-3-9-8Z" fill="#251d1c"/>
  <path d="M43 58c2-2 8-2 10 0-1 3-3 5-5 5s-4-2-5-5Z" fill="#0f0d0d"/>
  <path d="M36 68c4 5 8 8 12 8s8-3 12-8" fill="none" stroke="#e9b5a6" stroke-width="3.2" stroke-linecap="round"/>
  <path d="M44 72c2 1.3 6 1.3 8 0" fill="none" stroke="#b97469" stroke-width="2.4" stroke-linecap="round"/>
  <path d="M31 57c-4-1-7-5-8-10M65 57c4-1 7-5 8-10" fill="none" stroke="#8e603f" stroke-width="3" stroke-linecap="round" opacity=".42"/>
  <path d="M30 31c4-7 10-11 18-11s14 4 18 11" fill="none" stroke="#fff0d2" stroke-width="3" stroke-linecap="round" opacity=".45"/>
</svg>
